HIERARCHY
ROOT Hips
{
  OFFSET 91.2244 90.026 26.1335
  CHANNELS 6 Xposition Yposition Zposition Zrotation Xrotation Yrotation
  JOINT RightUpLeg
  {
    OFFSET -9.26543 -1.55198 -0.00276407
    CHANNELS 3 Zrotation Xrotation Yrotation
    JOINT RightLeg
    {
      OFFSET 0.00706465 -41.889 0.0798854
      CHANNELS 3 Zrotation Xrotation Yrotation
      JOINT RightFoot
      {
        OFFSET -1.51766 -41.6901 -0.263239
        CHANNELS 3 Zrotation Xrotation Yrotation
        End Site
        {
          OFFSET 0 -7.69 17.5
        }
      }
    }
  }
  JOINT LeftUpLeg
  {
    OFFSET 9.33035 -1.6331 0.002402
    CHANNELS 3 Zrotation Xrotation Yrotation
    JOINT LeftLeg
    {
      OFFSET 0.0774 -41.8788 0.006528
      CHANNELS 3 Zrotation Xrotation Yrotation
      JOINT LeftFoot
      {
        OFFSET 0.406189 -42.2791 -0.67832
        CHANNELS 3 Zrotation Xrotation Yrotation
        End Site
        {
          OFFSET 0 -7.69 17.5
        }
      }
    }
  }
  JOINT Spine
  {
    OFFSET 0.0210118 14.3125 0.030377
    CHANNELS 3 Zrotation Xrotation Yrotation
    JOINT Spine1
    {
      OFFSET -2.02627e-05 9.71981 0.0121962
      CHANNELS 3 Zrotation Xrotation Yrotation
      JOINT Spine2
      {
        OFFSET 0.023812 10.122 0.0180119
        CHANNELS 3 Zrotation Xrotation Yrotation
        JOINT Spine3
        {
          OFFSET 0.00443321 9.71861 0.0143853
          CHANNELS 3 Zrotation Xrotation Yrotation
          JOINT Neck
          {
            OFFSET -0.025003 10.3767 0.0233355
            CHANNELS 3 Zrotation Xrotation Yrotation
            JOINT Head
            {
              OFFSET -0.00975384 9.4764 0.045578
              CHANNELS 3 Zrotation Xrotation Yrotation
              End Site
              {
                OFFSET 0 15.95 0
              }
            }
          }
          JOINT RightShoulder
          {
            OFFSET -3.18407 6.9358 0.0313291
            CHANNELS 3 Zrotation Xrotation Yrotation
            JOINT RightArm
            {
              OFFSET -12.7601 0.0147069 0.0234973
              CHANNELS 3 Zrotation Xrotation Yrotation
              JOINT RightForeArm
              {
                OFFSET -26.4708 -0.032683 0.042111
                CHANNELS 3 Zrotation Xrotation Yrotation
                JOINT RightHand
                {
                  OFFSET -26.0234 -0.0283521 0.00388791
                  CHANNELS 3 Zrotation Xrotation Yrotation
                  JOINT RightHandThumb1
                  {
                    OFFSET -2.48905 0.190105 3.12053
                    CHANNELS 3 Zrotation Xrotation Yrotation
                    JOINT RightHandThumb2
                    {
                      OFFSET -3.68274 0 0
                      CHANNELS 3 Zrotation Xrotation Yrotation
                      JOINT RightHandThumb3
                      {
                        OFFSET -2.55832 0 0
                        CHANNELS 3 Zrotation Xrotation Yrotation
                        End Site
                        {
                          OFFSET -2.194 0 0
                        }
                      }
                    }
                  }
                  JOINT RightInHandIndex
                  {
                    OFFSET -3.22368 0.508421 1.97842
                    CHANNELS 3 Zrotation Xrotation Yrotation
                    JOINT RightHandIndex1
                    {
                      OFFSET -5.21684 -0.091368 0.999158
                      CHANNELS 3 Zrotation Xrotation Yrotation
                      JOINT RightHandIndex2
                      {
                        OFFSET -3.61937 0 0
                        CHANNELS 3 Zrotation Xrotation Yrotation
                        JOINT RightHandIndex3
                        {
                          OFFSET -2.0521 0 0
                          CHANNELS 3 Zrotation Xrotation Yrotation
                          End Site
                          {
                            OFFSET -1.805 0 0
                          }
                        }
                      }
                    }
                  }
                  JOINT RightInHandMiddle
                  {
                    OFFSET -3.38211 0.517263 0.756737
                    CHANNELS 3 Zrotation Xrotation Yrotation
                    JOINT RightHandMiddle1
                    {
                      OFFSET -5.17411 -0.084 0.313895
                      CHANNELS 3 Zrotation Xrotation Yrotation
                      JOINT RightHandMiddle2
                      {
                        OFFSET -3.94947 0 0
                        CHANNELS 3 Zrotation Xrotation Yrotation
                        JOINT RightHandMiddle3
                        {
                          OFFSET -2.47579 0 0
                          CHANNELS 3 Zrotation Xrotation Yrotation
                          End Site
                          {
                            OFFSET -1.975 0 0
                          }
                        }
                      }
                    }
                  }
                  JOINT RightInHandRing
                  {
                    OFFSET -3.36516 0.537895 -0.128947
                    CHANNELS 3 Zrotation Xrotation Yrotation
                    JOINT RightHandRing1
                    {
                      OFFSET -4.63474 -0.022105 -0.478947
                      CHANNELS 3 Zrotation Xrotation Yrotation
                      JOINT RightHandRing2
                      {
                        OFFSET -3.44238 0 0
                        CHANNELS 3 Zrotation Xrotation Yrotation
                        JOINT RightHandRing3
                        {
                          OFFSET -2.3881 0 0
                          CHANNELS 3 Zrotation Xrotation Yrotation
                          End Site
                          {
                            OFFSET -1.857 0 0
                          }
                        }
                      }
                    }
                  }
                  JOINT RightInHandPinky
                  {
                    OFFSET -3.16105 0.469368 -1.20179
                    CHANNELS 3 Zrotation Xrotation Yrotation
                    JOINT RightHandPinky1
                    {
                      OFFSET -4.14105 -0.022105 -1.09053
                      CHANNELS 3 Zrotation Xrotation Yrotation
                      JOINT RightHandPinky2
                      {
                        OFFSET -2.75653 0 0
                        CHANNELS 3 Zrotation Xrotation Yrotation
                        JOINT RightHandPinky3
                        {
                          OFFSET -1.74189 0 0
                          CHANNELS 3 Zrotation Xrotation Yrotation
                          End Site
                          {
                            OFFSET -1.645 0 0
                          }
                        }
                      }
                    }
                  }
                }
              }
            }
          }
          JOINT LeftShoulder
          {
            OFFSET 3.21192 6.92101 0.01407
            CHANNELS 3 Zrotation Xrotation Yrotation
            JOINT LeftArm
            {
              OFFSET 12.7303 -0.00466279 0.011464
              CHANNELS 3 Zrotation Xrotation Yrotation
              JOINT LeftForeArm
              {
                OFFSET 26.497 -0.127446 0.0273404
                CHANNELS 3 Zrotation Xrotation Yrotation
                JOINT LeftHand
                {
                  OFFSET 26.0093 -0.0453415 -0.0774742
                  CHANNELS 3 Zrotation Xrotation Yrotation
                  JOINT LeftHandThumb1
                  {
                    OFFSET 2.48905 0.190105 3.12053
                    CHANNELS 3 Zrotation Xrotation Yrotation
                    JOINT LeftHandThumb2
                    {
                      OFFSET 3.68274 0 0
                      CHANNELS 3 Zrotation Xrotation Yrotation
                      JOINT LeftHandThumb3
                      {
                        OFFSET 2.55832 0 0
                        CHANNELS 3 Zrotation Xrotation Yrotation
                        End Site
                        {
                          OFFSET 2.194 0 0
                        }
                      }
                    }
                  }
                  JOINT LeftInHandIndex
                  {
                    OFFSET 3.22368 0.508421 1.97842
                    CHANNELS 3 Zrotation Xrotation Yrotation
                    JOINT LeftHandIndex1
                    {
                      OFFSET 5.21684 -0.091368 0.999158
                      CHANNELS 3 Zrotation Xrotation Yrotation
                      JOINT LeftHandIndex2
                      {
                        OFFSET 3.61937 0 0
                        CHANNELS 3 Zrotation Xrotation Yrotation
                        JOINT LeftHandIndex3
                        {
                          OFFSET 2.0521 0 0
                          CHANNELS 3 Zrotation Xrotation Yrotation
                          End Site
                          {
                            OFFSET 1.805 0 0
                          }
                        }
                      }
                    }
                  }
                  JOINT LeftInHandMiddle
                  {
                    OFFSET 3.38211 0.517263 0.756737
                    CHANNELS 3 Zrotation Xrotation Yrotation
                    JOINT LeftHandMiddle1
                    {
                      OFFSET 5.17411 -0.084 0.313895
                      CHANNELS 3 Zrotation Xrotation Yrotation
                      JOINT LeftHandMiddle2
                      {
                        OFFSET 3.94947 0 0
                        CHANNELS 3 Zrotation Xrotation Yrotation
                        JOINT LeftHandMiddle3
                        {
                          OFFSET 2.47579 0 0
                          CHANNELS 3 Zrotation Xrotation Yrotation
                          End Site
                          {
                            OFFSET 1.975 0 0
                          }
                        }
                      }
                    }
                  }
                  JOINT LeftInHandRing
                  {
                    OFFSET 3.36516 0.537895 -0.128947
                    CHANNELS 3 Zrotation Xrotation Yrotation
                    JOINT LeftHandRing1
                    {
                      OFFSET 4.63474 -0.022105 -0.478947
                      CHANNELS 3 Zrotation Xrotation Yrotation
                      JOINT LeftHandRing2
                      {
                        OFFSET 3.44238 0 0
                        CHANNELS 3 Zrotation Xrotation Yrotation
                        JOINT LeftHandRing3
                        {
                          OFFSET 2.3881 0 0
                          CHANNELS 3 Zrotation Xrotation Yrotation
                          End Site
                          {
                            OFFSET 1.857 0 0
                          }
                        }
                      }
                    }
                  }
                  JOINT LeftInHandPinky
                  {
                    OFFSET 3.16105 0.469368 -1.20179
                    CHANNELS 3 Zrotation Xrotation Yrotation
                    JOINT LeftHandPinky1
                    {
                      OFFSET 4.14105 -0.022105 -1.09053
                      CHANNELS 3 Zrotation Xrotation Yrotation
                      JOINT LeftHandPinky2
                      {
                        OFFSET 2.75653 0 0
                        CHANNELS 3 Zrotation Xrotation Yrotation
                        JOINT LeftHandPinky3
                        {
                          OFFSET 1.74189 0 0
                          CHANNELS 3 Zrotation Xrotation Yrotation
                          End Site
                          {
                            OFFSET 1.645 0 0
                          }
                        }
                      }
                    }
                  }
                }
              }
            }
          }
        }
      }
    }
  }
}
MOTION
Frames: 3
Frame Time: 0.00833333
1.499880560114395678e+02 5.595948145978447974e-03 -1.885862603393430358e-03 3.681491927365389272e-02 7.435313219295285742e-03 1.744579235794627703e-01 -2.438377060827375264e-01 4.786305179802883419e-02 -2.913219495486969457e-01 4.604380061643434385e-02 -8.405259715386867794e-03 8.648728967191942479e-03 -8.242162259646166472e-03 -9.373086046516532904e-03 -3.146354378477953656e-02 -1.625705160383671133e-01 -9.700845530938007055e-02 -2.535718634512775793e-01 -1.917435461638711952e-03 -4.173942116640912831e-02 2.075272223235912275e-02 1.308102932874567748e-02 3.566057257932873231e-02 1.156838037120854444e-02 9.343184201003432165e-02 -1.718138512135213708e-02 -1.914150375228732825e-01 2.040508005168800709e-02 -1.007712627605711862e-02 -4.689796223737974223e-02 3.608520972401898369e-02 -2.145759641391189673e-02 -7.821474149782516039e-02 -5.630893252924630554e-03 7.233886802101415804e-03 4.926396672673165854e-03 -5.657365942352535551e-03 7.876865996764549627e-03 4.940065242570371336e-03 -8.328081808713717893e-02 1.019478716286727621e-01 4.142512399341716223e-02 -1.732895112158508999e-01 -1.658213695589000683e-02 -3.443165029866944171e-01 4.946632360530279771e-01 -1.641136352982679875e-02 -5.870979369500939349e-01 9.017984783190223785e-01 1.835681601386881079e+00 2.787095799166758869e-01 3.522005561495972215e-01 -1.281424603305504561e+00 6.117522008578488713e-01 0.000000000000000000e+00 0.000000000000000000e+00 0.000000000000000000e+00 -2.041436806492795175e-14 -6.785880260802163948e-15 0.000000000000000000e+00 -3.210688132489616436e-14 5.838661211076966986e-15 0.000000000000000000e+00 5.335143365472529594e-15 -7.466355649704333449e-16 -8.154170057244725911e-16 0.000000000000000000e+00 0.000000000000000000e+00 0.000000000000000000e+00 0.000000000000000000e+00 3.305542582470072980e-15 1.656694037631450584e-14 0.000000000000000000e+00 5.157978386793329865e-15 1.520638209958746244e-15 5.335143365472529594e-15 -7.466355649704333449e-16 -8.154170057244725911e-16 0.000000000000000000e+00 -5.296158694026551063e-15 -1.438899790016813988e-15 0.000000000000000000e+00 -4.460722656181569226e-15 1.872365340626009390e-15 0.000000000000000000e+00 -2.246473254072749032e-15 1.225073516135676822e-14 5.335143365472529594e-15 -7.466355649704333449e-16 -8.154170057244725911e-16 0.000000000000000000e+00 0.000000000000000000e+00 0.000000000000000000e+00 0.000000000000000000e+00 2.870553095059896935e-15 1.700739796652400570e-14 0.000000000000000000e+00 -3.017018017913861109e-15 -1.282973455655813783e-14 5.335143365472529594e-15 -7.466355649704333449e-16 -8.154170057244725911e-16 0.000000000000000000e+00 0.000000000000000000e+00 0.000000000000000000e+00 0.000000000000000000e+00 3.529202658215423232e-15 8.805029348328507415e-15 0.000000000000000000e+00 -6.661458148299511233e-16 -5.548360201500635169e-15 -1.080883469225274035e-01 5.398488172486952397e-02 1.736866917098658925e-01 -2.658627065310341653e-01 -1.145622176243375201e-01 2.686416519393521884e-01 4.238051449452687969e+00 1.745193175535767027e+00 4.239512315672548048e+00 3.727417476939187235e+00 1.662999028138429369e-01 3.873072749633057477e+00 0.000000000000000000e+00 0.000000000000000000e+00 0.000000000000000000e+00 -1.635662476749043413e-14 1.959052155681128774e-14 0.000000000000000000e+00 4.708831183307278265e-15 1.375692302751075548e-14 0.000000000000000000e+00 7.394785864141635280e-15 1.143022082033170066e-15 3.580883709022206162e-15 0.000000000000000000e+00 0.000000000000000000e+00 0.000000000000000000e+00 0.000000000000000000e+00 2.680867856617526555e-16 -3.747865273413576227e-15 0.000000000000000000e+00 -4.772322391992485719e-15 4.962099955105211875e-14 7.394785864141635280e-15 1.143022082033170066e-15 3.580883709022206162e-15 0.000000000000000000e+00 1.726062485902484006e-14 1.087204040337314140e-14 0.000000000000000000e+00 5.686622259621741673e-15 1.453156420925671301e-14 0.000000000000000000e+00 -9.916203930033462463e-15 3.465714705024720540e-14 7.394785864141635280e-15 1.143022082033170066e-15 3.580883709022206162e-15 0.000000000000000000e+00 0.000000000000000000e+00 0.000000000000000000e+00 0.000000000000000000e+00 -3.836435228141572831e-15 1.932620526037385991e-14 0.000000000000000000e+00 -1.287951525974677718e-14 3.174130933516138593e-14 7.394785864141635280e-15 1.143022082033170066e-15 3.580883709022206162e-15 0.000000000000000000e+00 0.000000000000000000e+00 0.000000000000000000e+00 0.000000000000000000e+00 3.130293406090145510e-14 3.207352607391761842e-15 0.000000000000000000e+00 -2.924909134297108556e-15 3.954269756419403407e-14
1.499910151565806018e+02 2.526162648032467296e-03 -8.736971943251826966e-03 2.172026041477733219e-02 1.071503945869273873e-03 1.255343756148438739e-01 -1.551243133627411841e-01 2.239864597673611041e-02 -2.034800427572241444e-01 1.518912820516180040e-02 5.755742866614409030e-03 6.059820861269536729e-02 -6.994679789633058767e-03 -7.654371928055942083e-03 -6.505297501370543856e-02 -1.106857706634103156e-01 -5.744709080355125258e-02 -1.824711957811304130e-01 -5.213538835136523504e-03 -2.189171758205599172e-02 3.198601061197821338e-02 8.189099065022406110e-04 7.007903933918865208e-03 -5.262926490263991099e-03 9.046121062139575453e-02 -3.153545808306040810e-02 -1.961518402863699218e-01 1.839848558177687582e-02 -1.343500519161599724e-02 -4.766600583745531083e-02 3.296999950392304202e-02 -2.505912873258446180e-02 -7.959221518899405046e-02 -6.731539054041253169e-03 7.306588178824982745e-03 7.127940771938196668e-03 -6.776835700346241220e-03 7.314549306738004839e-03 7.227169817557437849e-03 -1.217168589736979528e-01 1.175926910921916008e-01 9.096889868449684058e-02 -1.592781108229992804e-01 1.713942016010736730e-02 -2.534477447879558976e-01 5.017957094455379741e-01 -9.732973468019170959e-02 -5.958851856388662771e-01 9.026420292535296541e-01 1.612787051577129205e+00 4.240314124272262508e-01 3.211003768792263791e-01 -1.169546559585290746e+00 5.196042412460366577e-01 0.000000000000000000e+00 0.000000000000000000e+00 0.000000000000000000e+00 -1.349146310655379917e-14 -6.391091609903064762e-15 0.000000000000000000e+00 -2.139415872281056307e-14 5.970061722631189056e-15 0.000000000000000000e+00 3.651535653896741108e-15 -8.044033216059527849e-16 2.534897439243128193e-16 0.000000000000000000e+00 0.000000000000000000e+00 0.000000000000000000e+00 0.000000000000000000e+00 1.379444888742540428e-15 1.072495045635035472e-14 0.000000000000000000e+00 3.975802222740908290e-15 9.883855813589977793e-15 3.651535653896741108e-15 -8.044033216059527849e-16 2.534897439243128193e-16 0.000000000000000000e+00 2.579168076065244251e-15 7.918858980691827507e-16 0.000000000000000000e+00 -2.859422873963554412e-15 4.473768895440066374e-15 0.000000000000000000e+00 1.286761787564705825e-16 -9.593029852144713447e-17 3.651535653896741108e-15 -8.044033216059527849e-16 2.534897439243128193e-16 0.000000000000000000e+00 0.000000000000000000e+00 0.000000000000000000e+00 0.000000000000000000e+00 3.956807563480807076e-15 1.248869686614133278e-14 0.000000000000000000e+00 -1.673572876445402396e-15 -1.521719729398187495e-14 3.651535653896741108e-15 -8.044033216059527849e-16 2.534897439243128193e-16 0.000000000000000000e+00 0.000000000000000000e+00 0.000000000000000000e+00 0.000000000000000000e+00 5.020924884897278531e-16 1.106870766300999934e-14 0.000000000000000000e+00 -2.133434341309447617e-15 -1.722962351181938330e-15 -9.928820161412280076e-02 5.643597525948218507e-02 1.896159968325761835e-01 -1.996559938848742610e-01 -8.345116979352024122e-02 1.796411402212221842e-01 4.880170314153422062e+00 1.695658379377418923e+00 4.836193043452301055e+00 3.792525940313449251e+00 2.710761617222786080e-01 3.919918931459410949e+00 0.000000000000000000e+00 0.000000000000000000e+00 0.000000000000000000e+00 -1.125294579016143006e-14 -5.544316120485457152e-15 0.000000000000000000e+00 -6.232401003191317741e-15 6.435782629287896982e-15 0.000000000000000000e+00 3.886392063338482280e-15 5.149021233624518432e-15 -1.531794479101400428e-15 0.000000000000000000e+00 0.000000000000000000e+00 0.000000000000000000e+00 0.000000000000000000e+00 5.659866107391763271e-15 1.882937105274500238e-15 0.000000000000000000e+00 -7.014348168519606677e-15 1.714729958812375435e-14 3.886392063338482280e-15 5.149021233624518432e-15 -1.531794479101400428e-15 0.000000000000000000e+00 2.014576509212563785e-14 3.724543356011737540e-15 0.000000000000000000e+00 2.746541533274756048e-15 7.836433514436185704e-15 0.000000000000000000e+00 1.372033753900867327e-15 1.199565049614646644e-14 3.886392063338482280e-15 5.149021233624518432e-15 -1.531794479101400428e-15 0.000000000000000000e+00 0.000000000000000000e+00 0.000000000000000000e+00 0.000000000000000000e+00 1.230934573760524027e-15 1.138185664295702433e-14 0.000000000000000000e+00 -2.834657794948047000e-15 1.157134712580607178e-14 3.886392063338482280e-15 5.149021233624518432e-15 -1.531794479101400428e-15 0.000000000000000000e+00 0.000000000000000000e+00 0.000000000000000000e+00 0.000000000000000000e+00 1.433471817027949803e-14 6.283630748751882983e-15 0.000000000000000000e+00 -1.642267366297920974e-15 1.638820835774647132e-14
1.499943918022777325e+02 9.179031255264323173e-04 -1.282675433373749868e-02 1.055046471985393239e-02 -3.460633139011522197e-03 7.767388511841848142e-02 -8.664088522661837766e-02 -6.857341833735956229e-04 -1.144110142886577836e-01 -1.603391420877696644e-03 1.917538427949516677e-02 7.895026576531237461e-02 -3.587248590808893040e-03 -7.263523671825533601e-03 -8.377513543402877183e-02 -5.572683484734627934e-02 -2.662438144790334194e-02 -1.084312122105099141e-01 -8.835661363452885705e-03 -6.919409673711088282e-03 3.910828700017245779e-02 -1.014479384147854574e-02 -1.137930095273384686e-02 -1.666857707944989844e-02 7.905911800256675004e-02 -3.729652309179716518e-02 -1.797154865360368892e-01 1.444333399252370649e-02 -1.463744610548640100e-02 -4.171127916259444179e-02 2.715049688362602964e-02 -2.603739719319170948e-02 -6.970063940579651618e-02 -6.484789221367056114e-03 6.415883068667018949e-03 7.566027589294414823e-03 -6.536530590925373335e-03 5.871078285740647350e-03 7.709360818776005500e-03 -1.395445949527867879e-01 1.218646506822508718e-01 1.137116973845064827e-01 -1.252164924417344116e-01 2.506267598564399651e-02 -2.042022591480866511e-01 4.358278962431181291e-01 -9.483071545162291560e-02 -5.227398777782227279e-01 7.970293527659205735e-01 1.283929320297590770e+00 4.420133322537933562e-01 3.218590704657687263e-01 -1.015782913820365119e+00 4.324741134810706766e-01 0.000000000000000000e+00 0.000000000000000000e+00 0.000000000000000000e+00 -1.293856648645481232e-14 -8.694205429703775392e-15 0.000000000000000000e+00 -3.168814835785702532e-14 -4.159937965543950831e-16 0.000000000000000000e+00 2.779641905686277032e-15 -4.021084088636585180e-15 -9.256156127900841152e-16 0.000000000000000000e+00 0.000000000000000000e+00 0.000000000000000000e+00 0.000000000000000000e+00 4.193757044993082747e-15 1.917947038070004539e-14 0.000000000000000000e+00 5.958711386151783359e-15 2.736453686537301614e-15 2.779641905686277032e-15 -4.021084088636585180e-15 -9.256156127900841152e-16 0.000000000000000000e+00 7.348146963936519114e-15 6.688234073356475034e-16 0.000000000000000000e+00 1.552609882865982324e-16 5.208852737825768912e-15 0.000000000000000000e+00 -6.142844846790526662e-15 6.270719112445987506e-15 2.779641905686277032e-15 -4.021084088636585180e-15 -9.256156127900841152e-16 0.000000000000000000e+00 0.000000000000000000e+00 0.000000000000000000e+00 0.000000000000000000e+00 6.512379034570174645e-15 1.732855604138112349e-14 0.000000000000000000e+00 2.228027200460589208e-15 5.329951898113590029e-15 2.779641905686277032e-15 -4.021084088636585180e-15 -9.256156127900841152e-16 0.000000000000000000e+00 0.000000000000000000e+00 0.000000000000000000e+00 0.000000000000000000e+00 5.144689220173682447e-16 1.874363757037930390e-14 0.000000000000000000e+00 -1.990054448196745274e-15 -1.646439429945424523e-15 -9.261009606868449151e-02 5.082464343739871715e-02 1.828900295948654997e-01 -1.164758868685090015e-01 -4.294013466924253425e-02 9.265427734812393956e-02 4.968262139435509539e+00 1.595560900980253605e+00 4.892268713461598750e+00 3.647279592040560292e+00 2.211607021591748268e-01 3.779019851202034985e+00 0.000000000000000000e+00 0.000000000000000000e+00 0.000000000000000000e+00 -7.176349787687397445e-15 1.563161142995115466e-15 0.000000000000000000e+00 2.367322067316977960e-15 1.502371833206472017e-14 0.000000000000000000e+00 -1.322912307361729262e-15 3.508563237535620393e-15 -2.847711216467249393e-15 0.000000000000000000e+00 0.000000000000000000e+00 0.000000000000000000e+00 0.000000000000000000e+00 -3.058122797593233470e-15 4.593647348276966551e-15 0.000000000000000000e+00 -6.571193720125687938e-15 3.632448950516879927e-14 -1.322912307361729262e-15 3.508563237535620393e-15 -2.847711216467249393e-15 0.000000000000000000e+00 9.736110869675523558e-15 1.701149641253646814e-16 0.000000000000000000e+00 1.095950039342326331e-14 6.772100930346244823e-15 0.000000000000000000e+00 -4.142096405518898359e-15 2.350017663173650275e-14 -1.322912307361729262e-15 3.508563237535620393e-15 -2.847711216467249393e-15 0.000000000000000000e+00 0.000000000000000000e+00 0.000000000000000000e+00 0.000000000000000000e+00 6.051047401019534936e-15 1.250884145725677927e-14 0.000000000000000000e+00 -1.497830537766893048e-14 1.367318152320673217e-14 -1.322912307361729262e-15 3.508563237535620393e-15 -2.847711216467249393e-15 0.000000000000000000e+00 0.000000000000000000e+00 0.000000000000000000e+00 0.000000000000000000e+00 1.944003435300482688e-14 -8.933224384366238651e-16 0.000000000000000000e+00 3.710367230779363105e-15 3.271801747987719838e-14
